<svg xmlns="http://www.w3.org/2000/svg" id="Capa_1" viewBox="0 0 1060.6 452.5"><defs><style>      .st0, .st1 {        fill: #fff;      }      .st1 {        fill-rule: evenodd;        stroke: #fff;        stroke-width: .5px;      }      .st2 {        fill: #870337;      }    </style></defs><g><path class="st1" d="M432.1,173.1h-83.3l-26.3,72.1c-.8,2.1-1.6,4-2.4,5.6-.2.6-.4,1.2-.5,1.9-6.5.7-12.9,1.4-19.3,2.2,1.7-3.1,3.3-6.3,4.7-9.7,2.9-6.7,5.7-13.3,8.4-19.9l68.9-169.3c.8-1.9,1.5-3.6,2-5.2.8-1.6,1.2-3,1.2-4.4s-.5-3.3-1.6-6c-.8-2.6-1.9-5-3.2-7.2,6.9-1.3,12.9-3,17.9-5.2,5.1-2.1,10.6-4.4,16.7-6.8l80.4,221c-13,.2-26,.4-38.9.8l-24.7-70ZM427.7,161.2h-74.9l39-101.2,35.9,101.2Z"></path><path class="st1" d="M518.9,242.2c.2-5.1.4-10.7.4-16.9V92.2c0-11.1-.4-20.3-1.2-27.5-.5-7.4-2.2-13.4-5.2-17.9-2.6-4.5-6.8-7.8-12.3-10-5.6-2.1-13.1-3.6-22.7-4.4v-4.8c8.8.5,17.5.9,26.3,1.2,8.8.3,17.5.4,26.3.4,12.7,0,25.2-.7,37.5-2,12.5-1.3,25.1-2,37.8-2s20.5,1.9,31.1,5.6c10.6,3.4,20.5,8.6,29.5,15.5,9,6.6,16.3,14.9,21.9,24.7,5.9,9.6,8.8,20.5,8.8,32.7s-2.9,23.5-8.8,32.3c-5.8,8.8-13.3,15.9-22.3,21.5-8.8,5.3-18.6,9.1-29.5,11.5-10.9,2.4-21.5,3.6-31.9,3.6s-16.2-.4-24.7-1.2c-8.5-1-16.7-3.1-24.7-6v59.8c0,6.4,0,12.1.3,17.3-12.1-.2-24.3-.4-36.5-.4ZM555.1,42.4c6.1-2.7,12.4-4.3,18.7-4.8,6.6-.8,12.3-1.2,17.1-1.2,9.6,0,18.3,1.6,26.3,4.8,8.2,3.2,15.3,7.7,21.1,13.5,5.8,5.9,10.4,13,13.5,21.5,3.5,8.5,5.2,17.9,5.2,28.3s-1.7,16.6-5.2,23.5c-3.2,6.9-7.6,12.8-13.2,17.5-5.6,4.5-12.1,8.1-19.5,10.7-7.4,2.4-15.4,3.6-23.9,3.6s-13.8-.5-20.7-1.6c-6.6-1.3-13.1-3.7-19.5-7.2V42.4Z"></path><path class="st1" d="M942.5,294.8v-1.2c.9-7.4,1.3-16.7,1.3-27.9V92.2c0-11.1-.4-20.3-1.2-27.5-.5-7.4-2.3-13.4-5.2-17.9-2.7-4.5-6.8-7.8-12.4-10-5.6-2.1-13.2-3.6-22.7-4.4v-4.8c10.9.5,21.6.9,32.3,1.2,10.9.3,21.8.4,32.7.4s17.5-.1,26.3-.4c8.8-.3,17.4-.7,25.9-1.2v4.8c-9.3.8-16.6,2.2-21.9,4.4-5.3,2.1-9.3,5.4-12,10-2.7,4.5-4.4,10.5-5.2,17.9-.5,7.2-.8,16.3-.8,27.5v173.5c0,11.2.3,20.5.8,27.9.6,5,1.6,9.4,3.1,13.2-13.3-4.2-27-8.1-41-11.9Z"></path><path class="st1" d="M918.7,274.2c6.8,6.9,13,13.8,17.4,18.9-18.1-4.8-36.7-9.3-55.8-13.5-13.6-15.4-26.5-31.2-38.8-47.5-14.3-19.4-27-39.8-37.8-61.4-2.7,0-6.1-.1-10.4-.4-4-.5-8.2-1.2-12.7-2l-12.8-2.4c-4-1.1-7.3-2-10-2.8v62.2c0,11.2.3,20.4.8,27.9.2,1.7.5,3.4.8,5-12.7-1.7-25.6-3.3-38.6-4.8.8-7.6,1.2-16.9,1.2-28.1V92.2c0-11.1-.4-20.3-1.2-27.5-.5-7.4-2.3-13.4-5.2-17.9-2.7-4.5-6.6-7.8-12-10-5.3-2.1-12.7-3.6-22.3-4.4v-4.8c8.5.5,17,.9,25.5,1.2,8.5.3,17,.4,25.5.4s8.4-.1,13.9-.4c5.6-.5,11.4-1.1,17.5-1.6,6.4-.5,12.8-.9,19.1-1.2,6.4-.5,12.1-.8,17.1-.8,11.7,0,23.4,1.5,35.1,4.4,12,2.9,22.7,7.6,32.3,13.9,9.6,6.4,17.4,14.5,23.5,24.3,6.1,9.8,9.2,21.5,9.2,35s-1.7,17.3-5.2,24.7c-3.2,7.2-7.6,13.4-13.2,18.7-5.6,5.3-12.1,9.7-19.5,13.1-7.4,3.5-15.4,6-23.9,7.6,5.6,9.6,12.6,20.7,21.1,33.5,8.8,12.8,18.3,25.1,28.7,37.1,10.6,11.7,20.1,25.8,30.6,36.5ZM757.7,122.5c0-15.2.1-29.2.4-42.2.3-13,.7-25.9,1.2-38.7,6.1-1.9,12.3-3,18.7-3.6,6.4-.5,12.9-.8,19.5-.8s16.5,1.5,23.9,4.4c7.4,2.7,14.1,6.7,19.9,12,5.8,5,10.4,11.2,13.6,18.3,3.5,6.9,5.2,14.8,5.2,23.5,0,21.5-5.7,37.1-17.1,46.6-11.4,9.5-27.5,14.3-48.2,14.3s-12.3-.5-18.7-1.6c-6.4-1.3-12.5-3.1-18.3-5.2v-27.1Z"></path><path class="st2" d="M1,370.3c121.4-67,313.1-110.2,528.8-110.2s407.4,43.2,528.8,110.2c-137.9-44.6-324.1-72-528.8-72S139,325.7,1,370.3Z"></path><path class="st1" d="M279.9,102.2c-.8-5.6-1.6-12.1-2.4-19.5-.8-7.7-1.6-15.4-2.4-23.1-.5-8-1.1-15.7-1.6-23.1-.5-7.4-.8-13.9-.8-19.5-7.2-.3-14.5-.9-21.9-2-7.2-1.3-14.6-2.7-22.3-4-7.7-1.6-16-2.9-24.7-4-8.5-1.3-17.6-2-27.5-2-17.8,0-34.7,3.4-50.6,10.4-15.9,6.6-29.9,16.1-41.8,28.3-12,12-21.5,26.4-28.7,43.4-6.9,16.7-10.4,35.2-10.4,55.4s3.5,38.8,10.4,55.8c7.2,16.7,16.7,31.2,28.7,43.4,12,11.9,25.9,21.4,41.8,28.3,15.9,6.6,32.8,10,50.6,10s29.7-1.9,42.2-5.6c12.5-3.7,24-9.2,34.7-16.3,10.6-7.2,20.4-15.9,29.5-26.3,9-10.4,18.1-22.3,27.1-35.9l-10-8c-13.8,21.5-29.7,38.5-47.8,51-18.1,12.5-39.3,18.7-63.7,18.7s-31.1-3.2-43.8-9.6c-12.5-6.6-23-15.4-31.5-26.3-8.2-10.9-14.5-23.5-18.7-37.8-4.2-14.6-6.4-29.9-6.4-45.8s1.6-31.1,4.8-45.4c3.5-14.3,8.8-27,15.9-37.8,7.4-10.9,16.9-19.5,28.3-25.9,11.7-6.4,25.6-9.6,41.8-9.6s24.2,2.1,34.3,6.4c10.4,4,19.4,9.7,27.1,17.1,8,7.4,14.7,16.2,20.3,26.3,5.8,10.1,10.5,21.1,13.9,33.1h5.6Z"></path></g><g><path class="st0" d="M350.3,370.3c-1.3-1.6-2.7-3.1-4.2-4.3-5-3.9-10.9-5.9-17.8-5.9s-11.1,1.5-15.8,4.4c-4.7,2.9-8.4,7.7-11.1,14.1-2.7,6.5-4,14.5-4,24.1s1.3,14.8,3.8,20.6c2.5,5.8,6.4,10.3,11.5,13.4,5.1,3.1,10.9,4.6,17.5,4.6s10.7-1.2,15-3.6c4.3-2.4,9.1-7.3,14.3-14.5l2,1.3c-4.4,7.8-9.5,13.5-15.4,17.1-5.9,3.6-12.8,5.4-20.9,5.4-14.5,0-25.7-5.4-33.7-16.1-5.9-8-8.9-17.4-8.9-28.3s2-16.8,5.9-24.1c3.9-7.3,9.3-13,16.2-17,6.9-4,14.4-6,22.5-6s12.6,1.5,18.7,4.6c1.8.9,3.1,1.4,3.9,1.4,1.2,0,2.2-.4,3-1.2,1.1-1.2,1.9-2.8,2.4-4.8h2.3l2,29.8h-2c-1.9-6.2-4.3-11.2-7.2-15"></path><path class="st0" d="M426.6,415.8h-33.9l-5.9,13.8c-1.5,3.4-2.2,5.9-2.2,7.6s.6,2.5,1.9,3.5c1.3,1,4,1.7,8.2,2v2.4h-27.6v-2.4c3.7-.6,6-1.5,7.1-2.5,2.2-2.1,4.6-6.3,7.3-12.6l30.8-72.1h2.3l30.5,72.8c2.5,5.9,4.7,9.7,6.7,11.4,2,1.7,4.8,2.7,8.4,2.9v2.4h-34.5v-2.4c3.5-.2,5.8-.8,7.1-1.7,1.2-1,1.8-2.2,1.8-3.6s-.9-4.9-2.6-9l-5.3-12.6ZM424.8,411l-14.8-35.4-15.2,35.4h30.1Z"></path><path class="st0" d="M522.2,355.5v30.3h-2.4c-.8-5.8-2.2-10.4-4.2-13.9-2-3.4-4.9-6.2-8.6-8.2-3.7-2-7.5-3-11.5-3s-8.2,1.4-11.1,4.1c-2.9,2.7-4.4,5.8-4.4,9.3s.9,5.1,2.8,7.3c2.7,3.2,9,7.5,19,12.9,8.2,4.4,13.8,7.8,16.8,10.1,3,2.3,5.3,5.1,6.9,8.3,1.6,3.2,2.4,6.5,2.4,10,0,6.6-2.6,12.3-7.7,17.1-5.1,4.8-11.8,7.2-19.9,7.2s-4.9-.2-7.2-.6c-1.3-.2-4.1-1-8.3-2.4-4.2-1.4-6.9-2-8-2s-1.9.3-2.5,1c-.6.6-1.1,2-1.4,4h-2.4v-30h2.4c1.1,6.3,2.6,11,4.5,14.1,1.9,3.1,4.8,5.7,8.7,7.8,3.9,2.1,8.2,3.1,12.8,3.1s9.6-1.4,12.8-4.3c3.1-2.8,4.7-6.2,4.7-10.1s-.6-4.3-1.8-6.5c-1.2-2.2-3-4.2-5.5-6.1-1.7-1.3-6.3-4-13.8-8.2-7.5-4.2-12.8-7.5-16-10-3.2-2.5-5.6-5.2-7.2-8.3-1.6-3-2.5-6.3-2.5-9.9,0-6.3,2.4-11.7,7.2-16.2,4.8-4.5,11-6.8,18.4-6.8s9.6,1.1,14.8,3.4c2.4,1.1,4.1,1.6,5.1,1.6s2-.3,2.7-1c.7-.7,1.3-2,1.7-4h2.4Z"></path><path class="st0" d="M575.9,442.7v2.4h-37.5v-2.4h3.1c3.6,0,6.2-1.1,7.9-3.2,1-1.4,1.5-4.7,1.5-9.9v-56.6c0-4.4-.3-7.4-.8-8.8-.4-1.1-1.3-2-2.6-2.8-1.9-1-3.9-1.5-5.9-1.5h-3.1v-2.4h37.5v2.4h-3.2c-3.6,0-6.2,1.1-7.8,3.2-1.1,1.4-1.6,4.7-1.6,9.9v56.6c0,4.4.3,7.4.8,8.8.4,1.1,1.3,2,2.7,2.8,1.8,1,3.8,1.5,5.9,1.5h3.2Z"></path><path class="st0" d="M577.4,357.5h23.8l53.5,65.7v-50.5c0-5.4-.6-8.7-1.8-10.1-1.6-1.8-4.1-2.7-7.6-2.7h-3v-2.4h30.5v2.4h-3.1c-3.7,0-6.3,1.1-7.9,3.4-.9,1.4-1.4,4.5-1.4,9.4v73.8h-2.3l-57.7-70.5v53.9c0,5.4.6,8.7,1.7,10.1,1.6,1.8,4.2,2.7,7.6,2.7h3.1v2.4h-30.5v-2.4h3c3.7,0,6.4-1.1,7.9-3.4.9-1.4,1.4-4.5,1.4-9.4v-60.9c-2.5-3-4.5-4.9-5.8-5.9-1.3-.9-3.2-1.8-5.8-2.6-1.2-.4-3.1-.6-5.7-.6v-2.4Z"></path><path class="st0" d="M723,355.5c11.4,0,21.2,4.3,29.5,12.9,8.3,8.6,12.5,19.4,12.5,32.3s-4.2,24.3-12.6,33.1c-8.4,8.8-18.6,13.2-30.5,13.2s-22.2-4.3-30.4-12.8c-8.2-8.6-12.3-19.6-12.3-33.2s4.7-25.2,14.2-34c8.2-7.6,18.1-11.4,29.5-11.4ZM721.8,360.2c-7.8,0-14.1,2.9-18.9,8.7-5.9,7.2-8.8,17.8-8.8,31.8s3.1,25.3,9.2,33c4.7,5.9,10.9,8.8,18.6,8.8s15-3.2,20.4-9.6c5.4-6.4,8-16.5,8-30.3s-2.9-26.1-8.8-33.5c-4.7-5.9-11.3-8.8-19.6-8.8Z"></path></g></svg>