<svg xmlns="http://www.w3.org/2000/svg" id="Capa_1" viewBox="0 0 1274.3 452.5"><defs><style>      .st0 {        fill: #fff;      }      .st1 {        fill: #b47400;      }    </style></defs><g><path class="st0" d="M560.4,105.4c-11.4,9.9-22.4,14.6-30.9,16.5-8.6,1.9-13.9,1.5-16.2-1.2-2.2-2.7-1.9-6.9.9-12.7,2.8-5.7,7.7-10.2,14.7-13.5,7-3.3,13.7-9.2,19.9-17.8,6.2-8.5,8.9-16.2,8.1-22.8-.8-6.7-3.9-11.1-9.1-13.4-5.3-2.2-13.5-.7-24.8,4.6-11.2,5.3-23.8,11.9-37.8,20-13.9,8.1-28.7,17.7-44.3,29-15.6,11.2-31.8,24.3-48.7,39.2-16.9,14.9-34.6,30.7-53.1,47.6-18.5,16.9-36.6,34.1-54.3,51.7-17.7,17.6-37.2,35.3-58.5,53.1-21.3,17.8-38.8,31-52.5,39.7-13.7,8.7-28.8,13.9-45.2,15.8-9.1-1.4-16.5-5.1-22.1-11.1-5.6-6-9-16.6-10.2-32-1.2-15.3,2.7-31.3,11.8-48,9-16.6,18.5-32.8,28.5-48.5,10-15.7,19.6-29.3,29-40.8,9.4-11.5,17.9-23.4,25.5-35.8,7.6-12.4,10-18.6-2.1-11.4-12.2,7.1-24.3,15.6-36.4,25.3-12.1,9.7-24.3,21.1-36.5,34.1-12.3,13-24.5,27.4-36.7,43.2-12.2,15.8-23.4,32-33.6,48.5-10.2,16.5-18.6,29.9-25.3,40.2-6.7,10.3-11.4,5.9-14.2-13.4,15.7-32.1,31.9-59.3,48.5-81.7,16.6-22.4,33-42,49-58.9,16.1-16.9,30.5-30.6,43.2-41.3,12.8-10.7,28.5-21.4,47.6-31.3,37.5-19.3,53.3-8.7,53.3.9s-4.9,22-14.8,37.1c-9.8,15.1-21.1,31.6-33.7,49.4-12.7,17.8-24.7,34.7-36,50.8-11.4,16-19.8,29.8-25.3,41.3-5.5,11.5-9.4,19.7-11.8,24.8-2.3,5-2.6,10.8-.9,17.4,1.8,6.6,5.6,9.8,11.4,9.7,5.9-.1,14.6-3.6,26.2-10.5,11.6-6.9,24.6-16.4,39-28.5,14.4-12.1,30.8-26.9,49.2-44.5,18.4-17.6,39.1-37.5,62-59.9,23-22.4,43.9-41.6,62.9-57.6,19-16,37.5-30.2,55.7-42.5,18.2-12.3,34.9-23,50.1-32,15.2-9,34.2-17.9,56.9-26.5,0,0,42-14.2,48.8,27.4,0,0,6.3,41.2-27.2,70.3Z"></path><path class="st0" d="M1242.4,149c-15.8-1.5-36.1-1.7-60.3,0-24.3,1.6-48.3,3.6-72.2,5.8-23.9,2.2-47.3,4.6-70.1,7.2-22.8,2.6-40,4.6-51.5,6,8.9-9.6,16.8-17.9,23.7-24.8,6.9-6.9,14.1-14.1,21.6-21.6,7.5-7.5,17.6-16.9,30.4-28.3,12.8-11.4,16.9-20,12.5-25.8-7.5.2-16.3,3.8-26.5,10.7-10.2,6.9-21,15.5-32.3,25.8-11.4,10.3-22,19.9-32,28.8-10,8.9-22.8,20.7-38.5,35.5-8.9,1.6-17.5,3-25.7,4-8.2,1.1-13.7,2.6-16.5,4.7-2.8,2.1-3.9,5.4-3.2,9.8.7,4.4,2.9,6.6,6.5,6.5,3.6-.1,10.8-.9,21.6-2.3-7,10.5-17.9,22.5-32.7,35.8-14.8,13.4-24.2,23.5-28.3,30.6-4.1,7-7.3,13.7-9.7,20-2.3,6.3-3.5,11.4-3.5,15.4-3.5,1.1-7.2,2.1-11.1,3.1-11.7,3-26.9,4-45.3,3-18.5-1-30.4-3.3-35.7-6.9-5.3-3.6-7.5-6.9-6.4-9.9,1-3,8.1-6.4,21.3-10.1,13.2-3.7,25-9.8,35.4-18.3,10.5-8.4,16.2-18.5,17.2-30.1,1-11.6-1.8-19.7-8.4-24.3-6.6-4.6-14.3-7-23.2-7.3l-9.9.4c-8.9,2.3-17.5,6.6-26,12.9-8.5,6.3-16.9,13.7-25.4,22.3-8.5,8.6-14.5,16.9-18.3,24.9-3.7,8-5.6,19.5-5.6,34.4.2.9.3,1.7.5,2.6-6.7,2.1-13.9,4.2-21.8,6.4-25.6,7.2-39.4,7.8-41.2,1.7-1.9-6,0-15.2,5.4-27.5,5.4-12.3,5.4-21.7,0-28.2-5.4-6.5-12-8.8-19.5-7.1-7.6,1.7-17.6,6.2-30.1,13.5-12.5,7.3-35,20.5-67.7,39.7,20.6-21.5,32.6-36.7,35.9-45.8,3.3-9,4-17.5,2.2-25.4-1.8-7.9-7.5-13.5-17-17-11-1.1-20.7,2.6-30.4,5.8-10.7,3.5-14.4,5-32,15.9-15.7,9.7-34.6,23.7-47,34.3-6.7,5.6-14.9,12-21.9,17.5,0,0,0,0,0,0-10.8,7.5-30.6,26.1-49.1,25.1-18.5-1-30.3-3.3-35.6-6.9-5.3-3.6-7.5-6.9-6.5-9.9,1-3,8.1-6.4,21.3-10.1,13.2-3.7,25-9.8,35.4-18.2,10.5-8.5,16.2-18.5,17.2-30.1,1-11.6-1.8-19.7-8.4-24.3-6.6-4.6-14.3-7-23.2-7.3l-9.9.4c-8.9,2.3-17.6,6.6-26,12.9-8.4,6.3-16.9,13.7-25.4,22.4-8.4,8.6-14.5,16.9-18.3,24.9-3.7,8-5.6,19.5-5.6,34.4,1.7,9.7,4.6,17.1,8.6,21.9,4,4.9,9.7,9.1,17,12.7,3.6,1.8,9,3.4,16.1,4.8,7.1,1.4,15.8,2.6,26.3,3.6,44.3,0,81.6-29,89.5-35.4,5.2-4.1,10-7.7,14.6-12h0c2.2-1.9,4.6-3.9,7.1-6.3,16.4-14.9,35.1-26.7,45.5-29.4,10.5-2.7,13.6-2.2,11.8,5.3-1.7,7.4-6.4,14.7-13.9,21.9-7.6,7.1-15.5,14-23.7,20.6-8.2,6.6-12,13.8-11.4,21.5.6,7.8,3.4,13.1,8.4,16.1,5,3,12,4.5,20.8,4.5,6.6-2.9,16.5-7.9,29.7-15,13.2-7.2,28.6-17.1,46.2-29.7,17.6-12.6,25.1-14.6,22.6-6-2.6,8.6-2.2,16.7,1.3,24.3,3.4,7.6,11.6,13.2,24.5,16.7,12.9,3.6,32.4,1.2,58.6-7.3,11.6-3.7,21.1-7.1,28.5-10.1,4,4.5,9.3,8.5,16.2,11.8,7.3,3.6,21.4,6.4,42.3,8.4h11.6c19.2-.8,35.4-3.3,48.8-7.3,7.7-2.3,14.7-4.8,20.9-7.5,1.4,1.4,2.8,2.6,4.6,3.8,5,3.2,12,5.2,20.9,6.1,3.3.2,6.7.4,10.2.4,5.6,0,11.6-.5,17.9-1.4,9.8-1.4,18.7-3.6,26.5-6.7,7.8-3,14.8-6.3,20.9-9.8,1-.6,2.1-1.3,3.2-2,1,2.4,2.2,4.7,3.6,6.9,5.7,9.6,15.5,16.7,29.2,21.3,14.9,0,28.1-2.2,39.7-6.4,11.6-4.3,23.4-10.1,35.4-17.4,12-7.3,20.6-14,27.1-17.8,21.8-13,35-46,35-46,3.3-8.9,3.5-18.5.6-28.8-2.9-10.3-10.7-16.8-23.6-19.3-12.3.3-21.1,1.7-26.4,4.3-5.3,2.6-8.5,7.3-9.5,14.2-1,6.9,1.5,12.5,7.5,17,6,4.4,9,10.7,9,18.7s-3.9,14.7-11.6,20c-7.7,5.3-15.7,9.7-23.8,13.3-8.2,3.6-15.3,7.4-21.3,11.4-6,4-12.4,5.9-19.1,5.6-6.7-.3-12.4-3.9-17-10.7-4.6-6.9-2.1-14,7.5-21.3,9.6-7.3,18.5-11.9,26.9-13.8,8.3-1.9,14.8-3.4,19.6-4.5,4.7-1.1,8.3-3.4,10.7-6.9,2.4-3.4,3-7.9,1.7-13.5-1.3-5.6-4-10.3-8.2-14.2-4.2-3.9-11.2-4.3-21.1-1.3-9.9,3-19.6,7.7-29.2,14.2-9.6,6.4-19.6,14.5-30.1,24.1-10.5,9.6-16.4,18.4-17.8,26.4,0,2.5-13.2,8.1-25.6,12.3-16.6,5.7-27.9,8.1-33.7,7-5.9-1.1-10.1-3.9-11.9-8.8-2.6-7.1.2-15.7,11.8-29.8,6.1-7.5,13.8-15.7,22.1-25.7,8.3-9.9,15.5-18,21.6-24.2,6.1-6.2,11.2-11.1,15.3-14.6,4.1-3.5,8-6.2,11.6-7.9,3.6-1.7,8.3-3,13.9-3.7,5.6-.7,12.8-1.3,21.4-1.9,8.7-.6,23.3-1.7,43.9-3.3,20.6-1.6,40.5-3.5,59.6-5.4,19.1-2,39.2-3.9,60.4-5.6,21.2-1.8,72.5-4,80.5-2.9,8,1,4.4-16.1-11.4-17.6ZM333.5,258.9c3.1-6,6.4-11.4,9.7-16.1,3.3-4.7,9.4-9.4,18.3-14,8.9-4.6,13.7-4.7,14.6-.4.9,4.3-1.6,9-7.5,14.2-5.9,5.1-17.6,10.6-35,16.3ZM761.9,242.8c3.3-4.7,9.4-9.4,18.3-14,8.9-4.6,13.8-4.7,14.6-.4.9,4.3-1.6,9-7.5,14.2-5.9,5.2-17.5,10.6-35,16.3,3.1-6,6.4-11.4,9.7-16.1Z"></path></g><g><path class="st1" d="M902,434.6c-3.3,1.6-11.2,3.6-21.1,3.6-28.6,0-43.3-17.9-43.3-41.5s20.1-43.8,45.2-43.8,17.1,1.8,20.4,3.7l-3.9,14.7c-3.7-1.6-8.9-3.1-15.7-3.1-14.7,0-26.3,9-26.3,27.4s9.8,27,26.4,27,11.9-1.1,15.7-2.7l2.7,14.7Z"></path><path class="st1" d="M934.9,415.6l-5.9,21.2h-19.3l25.2-82.7h24.5l25.8,82.7h-20.3l-6.4-21.2h-23.7ZM955.9,401.6l-5.2-17.6c-1.5-4.9-3-11-4.2-16h-.2c-1.2,4.9-2.4,11.2-3.8,16l-4.9,17.6h18.3Z"></path><path class="st1" d="M996.8,417.6c4.9,2.6,12.8,5.2,20.7,5.2s13.1-3.6,13.1-9-3.9-8.1-13.9-11.5c-13.7-4.9-22.8-12.5-22.8-24.5s11.9-24.8,31.3-24.8,16.2,1.8,21.1,4.2l-4.2,15c-3.2-1.6-9.2-3.9-17.2-3.9s-12,3.8-12,8,4.5,7.6,15.3,11.7c14.6,5.4,21.4,13,21.4,24.7s-10.6,25.6-33.3,25.6-18.8-2.6-23.4-5.1l3.8-15.3Z"></path><path class="st1" d="M1081.3,354.1v82.7h-18.6v-82.7h18.6Z"></path><path class="st1" d="M1097.5,436.8v-82.7h21.8l17.2,30.3c4.9,8.7,9.7,19,13.5,28.3h.2c-1.1-10.9-1.5-22.1-1.5-34.6v-24.1h17.2v82.7h-19.6l-17.7-31.9c-4.9-8.8-10.4-19.5-14.4-29.2h-.5c.6,11,.9,22.7.9,36.2v24.9h-17.2Z"></path><path class="st1" d="M1257.9,394.6c0,27.2-16.3,43.6-40.6,43.6s-38.9-18.5-38.9-42.2,16-43.3,40.2-43.3,39.3,19,39.3,42ZM1198.1,395.6c0,16.3,7.6,27.7,20.1,27.7s19.9-12,19.9-28.1-7-27.7-19.9-27.7-20.1,12-20.1,28.1Z"></path></g></svg>