<svg xmlns="http://www.w3.org/2000/svg" xmlns:xlink="http://www.w3.org/1999/xlink" id="Capa_1" viewBox="0 0 888.4 452.5"><defs><style>      .st0 {        fill: url(#radial-gradient1);      }      .st0, .st1, .st2, .st3, .st4, .st5, .st6, .st7, .st8, .st9, .st10, .st11, .st12, .st13 {        stroke: #fff;      }      .st0, .st1, .st3, .st4, .st5, .st6, .st7, .st8, .st9, .st10, .st11, .st12, .st13 {        stroke-width: .8px;      }      .st1 {        fill: url(#radial-gradient5);      }      .st14, .st15 {        fill: #fff;      }      .st2 {        fill: url(#radial-gradient);        stroke-width: 1.3px;      }      .st15 {        fill-rule: evenodd;      }      .st4 {        fill: url(#radial-gradient8);      }      .st5 {        fill: url(#radial-gradient12);      }      .st16 {        filter: url(#drop-shadow-1);      }      .st6 {        fill: url(#radial-gradient6);      }      .st7 {        fill: url(#radial-gradient2);      }      .st8 {        fill: url(#radial-gradient7);      }      .st17 {        fill: #1d1d1b;      }      .st9 {        fill: url(#radial-gradient11);      }      .st10 {        fill: url(#radial-gradient10);      }      .st11 {        fill: url(#radial-gradient4);      }      .st12 {        fill: url(#radial-gradient3);      }      .st13 {        fill: url(#radial-gradient9);      }    </style><radialGradient id="radial-gradient" cx="425.2" cy="221.3" fx="425.2" fy="221.3" r="251.6" gradientUnits="userSpaceOnUse"><stop offset="0" stop-color="#ce1619"></stop><stop offset=".5" stop-color="#ab1a18"></stop><stop offset="1" stop-color="#681810"></stop></radialGradient><radialGradient id="radial-gradient1" cx="448.2" cy="226.3" fx="448.2" fy="226.3" r="311.5" xlink:href="#radial-gradient"></radialGradient><radialGradient id="radial-gradient2" cx="448.2" cy="226.3" fx="448.2" fy="226.3" r="311.5" xlink:href="#radial-gradient"></radialGradient><radialGradient id="radial-gradient3" cx="448.2" cy="226.4" fx="448.2" fy="226.4" r="311.5" xlink:href="#radial-gradient"></radialGradient><radialGradient id="radial-gradient4" cx="448.2" cy="226.3" fx="448.2" fy="226.3" r="311.4" xlink:href="#radial-gradient"></radialGradient><radialGradient id="radial-gradient5" cx="448.2" cy="226.4" fx="448.2" fy="226.4" r="311.5" xlink:href="#radial-gradient"></radialGradient><radialGradient id="radial-gradient6" cx="448.2" cy="226.3" fx="448.2" fy="226.3" r="311.4" xlink:href="#radial-gradient"></radialGradient><radialGradient id="radial-gradient7" cx="448.2" cy="226.3" fx="448.2" fy="226.3" r="311.5" xlink:href="#radial-gradient"></radialGradient><radialGradient id="radial-gradient8" cx="448.2" cy="226.3" fx="448.2" fy="226.3" r="311.5" xlink:href="#radial-gradient"></radialGradient><radialGradient id="radial-gradient9" cx="448.2" cy="226.3" fx="448.2" fy="226.3" r="311.5" xlink:href="#radial-gradient"></radialGradient><radialGradient id="radial-gradient10" cx="448.2" cy="226.3" fx="448.2" fy="226.3" r="311.5" xlink:href="#radial-gradient"></radialGradient><radialGradient id="radial-gradient11" cx="448.2" cy="226.4" fx="448.2" fy="226.4" r="311.4" xlink:href="#radial-gradient"></radialGradient><radialGradient id="radial-gradient12" cx="448.2" cy="226.3" fx="448.2" fy="226.3" r="311.5" xlink:href="#radial-gradient"></radialGradient><filter id="drop-shadow-1" x="321.9" y="309.9" width="222" height="59" filterUnits="userSpaceOnUse"></filter></defs><path class="st2" d="M608.1,225.7c0,98.5-79.9,178.4-178.4,178.4s-178.4-79.9-178.4-178.4S331.1,47.3,429.7,47.3s178.4,79.9,178.4,178.4Z"></path><g><path class="st3" d="M428.2,48.4V7c-19.6,0-38.7,2.6-56.8,7.4l10.7,40c14.7-3.9,30.1-6,46.1-6Z"></path><path class="st3" d="M517.1,72.2l20.7-35.9c-16.4-9.5-34.1-16.9-52.9-21.9l-10.7,40c15.2,4.1,29.6,10.1,42.9,17.8Z"></path><path class="st0" d="M428.2,48.4c15.9,0,31.4,2.1,46,6l10.7-40c-18.1-4.8-37.1-7.4-56.8-7.4h0v41.4h0Z"></path><path class="st7" d="M302.4,100.5l-29.3-29.3c-13.5,13.5-25.2,28.8-34.9,45.4l35.9,20.7c7.8-13.5,17.3-25.9,28.3-36.8Z"></path><path class="st12" d="M382.1,54.4l-10.7-40c-18.7,5-36.5,12.4-52.9,21.9l20.7,35.8c13.3-7.7,27.7-13.7,42.9-17.8Z"></path><path class="st3" d="M339.2,72.2l-20.7-35.8c-16.6,9.6-31.9,21.4-45.4,34.9l29.3,29.3c10.9-10.9,23.3-20.5,36.8-28.3Z"></path><path class="st3" d="M582.3,137.3l35.9-20.7c-9.6-16.6-21.4-31.9-34.9-45.4l-29.3,29.3c10.9,11,20.5,23.3,28.3,36.8Z"></path><path class="st11" d="M606.1,226.3c0,15.9-2.1,31.4-6,46l40,10.7c4.8-18.1,7.4-37.1,7.4-56.8h-41.4Z"></path><path class="st3" d="M274.1,137.3l-35.9-20.7c-9.5,16.4-16.9,34.2-21.9,52.9l40,10.7c4.1-15.2,10.1-29.6,17.8-42.9Z"></path><path class="st1" d="M600,180.2l40-10.7c-5-18.7-12.4-36.5-21.9-52.9l-35.9,20.7c7.7,13.3,13.7,27.7,17.8,42.9Z"></path><path class="st6" d="M554,100.5l29.3-29.3c-13.5-13.5-28.8-25.2-45.4-34.9l-20.7,35.9c13.5,7.8,25.9,17.3,36.8,28.3Z"></path><path class="st3" d="M606.1,226.3h41.4c0-19.6-2.6-38.7-7.4-56.8l-40,10.7c3.9,14.7,6,30.1,6,46Z"></path><path class="st3" d="M517.1,380.3l20.7,35.9c16.6-9.6,31.9-21.4,45.4-34.9l-29.3-29.3c-11,11-23.3,20.5-36.8,28.3Z"></path><path class="st8" d="M256.3,180.2l-40-10.7c-4.9,18.1-7.4,37.1-7.4,56.8h41.4c0-15.9,2.1-31.4,6-46Z"></path><path class="st4" d="M428.2,404.2c-15.9,0-31.4-2.1-46.1-6l-10.7,40c18.1,4.8,37.1,7.4,56.8,7.4h0v-41.4h0Z"></path><path class="st13" d="M474.2,398.1l10.7,40c18.7-5,36.5-12.4,52.9-21.9l-20.7-35.9c-13.3,7.7-27.7,13.7-42.9,17.8Z"></path><path class="st10" d="M554,352l29.3,29.3c13.5-13.5,25.3-28.8,34.9-45.4l-35.9-20.7c-7.8,13.5-17.3,25.9-28.3,36.8Z"></path><path class="st3" d="M582.3,315.2l35.9,20.7c9.5-16.4,16.9-34.2,21.9-52.9l-40-10.7c-4.1,15.2-10.1,29.6-17.8,42.9Z"></path><path class="st3" d="M428.2,404.2v41.4c19.6,0,38.7-2.6,56.8-7.4l-10.7-40c-14.7,3.9-30.1,6-46,6Z"></path><path class="st3" d="M339.2,380.3l-20.7,35.9c16.4,9.5,34.2,16.9,52.9,21.9l10.7-40c-15.2-4.1-29.6-10.1-42.9-17.8Z"></path><path class="st9" d="M256.3,272.3l-40,10.7c5,18.7,12.4,36.5,21.9,52.9l35.9-20.7c-7.7-13.3-13.7-27.7-17.8-42.9Z"></path><path class="st3" d="M250.3,226.3h-41.4c0,19.6,2.6,38.7,7.4,56.8l40-10.7c-3.9-14.7-6-30.1-6-46Z"></path><path class="st3" d="M274.1,315.2l-35.9,20.7c9.6,16.6,21.4,31.9,34.9,45.4l29.3-29.3c-11-11-20.5-23.3-28.3-36.8Z"></path><path class="st5" d="M302.4,352l-29.3,29.3c13.5,13.5,28.8,25.3,45.4,34.9l20.7-35.9c-13.5-7.8-25.9-17.3-36.8-28.3Z"></path></g><path class="st15" d="M301.4,73.4c0-4.5-.2-9.1-.3-13.6,2.2.9,4.4,1.8,6.6,2.7,1.5.6,2.9,1.2,4.3,1.8.2,0,1.6.5,1.6.7.1,4.5.3,9,.4,13.6-4.2-1.7-8.4-3.4-12.6-5.1"></path><path class="st15" d="M394.2,32.6c1.9-4.1,3.9-8.2,5.8-12.3,1.6,1.8,3.1,3.6,4.7,5.4,1,1.2,2.1,2.3,3.1,3.5.1.2,1.2,1.2,1.1,1.3-1.9,4.1-3.8,8.2-5.7,12.3-3-3.4-6-6.8-9-10.2"></path><path class="st15" d="M244.5,157.7c-2.9-3.5-5.7-7.1-8.6-10.6,2.3-.6,4.6-1.3,6.9-1.9,1.5-.4,3-.8,4.5-1.2.2,0,1.6-.6,1.7-.4,2.9,3.5,5.7,7,8.6,10.5-4.4,1.2-8.7,2.4-13.1,3.7"></path><path class="st15" d="M233,259.2c-4-2.2-8-4.4-12-6.6,1.9-1.5,3.8-2.9,5.6-4.4,1.2-.9,2.5-1.9,3.7-2.9.2-.1,1.2-1.1,1.4-1,4,2.2,8,4.3,11.9,6.5-3.6,2.8-7.2,5.6-10.7,8.4"></path><path class="st15" d="M627,205.7c-4.4-1.1-8.8-2.1-13.2-3.2,1.4-1.9,2.9-3.8,4.3-5.7.9-1.2,1.9-2.5,2.9-3.7.1-.2.9-1.4,1.1-1.4,4.4,1,8.8,2.1,13.2,3.1-2.7,3.6-5.5,7.2-8.2,10.9"></path><path class="st15" d="M275.1,352.7c-4.5.1-9.1.2-13.6.3.9-2.2,1.8-4.4,2.7-6.6.6-1.4,1.2-2.9,1.8-4.3,0-.2.5-1.6.7-1.6,4.5-.1,9-.3,13.6-.4-1.7,4.2-3.4,8.4-5.1,12.6"></path><path class="st15" d="M591.7,111.5c-4.4,1.3-8.7,2.6-13.1,3.8.3-2.4.6-4.7.9-7.1.2-1.5.4-3.1.6-4.6,0-.2,0-1.7.3-1.7,4.3-1.3,8.7-2.6,13-3.9-.6,4.5-1.1,9-1.7,13.5"></path><path class="st15" d="M511.3,45.5c-3.9,2.4-7.8,4.7-11.7,7.1-.3-2.3-.6-4.7-1-7.1-.2-1.5-.4-3.1-.6-4.6,0-.2-.4-1.6-.2-1.7,3.9-2.4,7.7-4.7,11.6-7.1.6,4.5,1.3,9,1.9,13.5"></path><path class="st15" d="M360.7,411.2c-3.1,3.3-6.3,6.6-9.4,9.9-.9-2.2-1.8-4.4-2.8-6.6-.6-1.4-1.2-2.9-1.8-4.3,0-.2-.8-1.5-.6-1.6,3.1-3.3,6.2-6.6,9.3-9.9,1.8,4.2,3.5,8.4,5.3,12.5"></path><path class="st15" d="M461.8,423.8c-2.2,4-4.4,8-6.5,12-1.5-1.9-2.9-3.8-4.4-5.6-.9-1.2-1.9-2.5-2.9-3.7-.1-.2-1.1-1.2-1-1.4,2.2-4,4.3-8,6.4-11.9,2.8,3.6,5.6,7.1,8.4,10.7"></path><path class="st15" d="M555.4,379c.1,4.5.2,9.1.3,13.6-2.2-.9-4.4-1.8-6.6-2.7-1.4-.6-2.9-1.2-4.3-1.8-.2,0-1.6-.5-1.6-.7-.1-4.5-.3-9-.4-13.6,4.2,1.7,8.4,3.4,12.6,5.1"></path><path class="st15" d="M614.2,296.5c1.8,4.2,3.6,8.4,5.4,12.5-2.4,0-4.8,0-7.2,0-1.6,0-3.1,0-4.7,0-.2,0-1.6.1-1.7,0-1.8-4.2-3.6-8.3-5.4-12.5,4.5,0,9.1,0,13.6,0"></path><g class="st16"><path class="st14" d="M336.1,347.9c-4.5-3.8-5.7-8.7-5.7-13s1-8.2,5.3-12.1c3.3-2.9,7.7-4.7,14.4-4.7s4.6.2,6.6.5c1.7.3,3.2.6,4.6.7.5,0,.7.3.7.5s-.1.9-.2,2.4c-.1,1.4-.1,3.9-.2,4.8,0,.6-.2,1.1-.6,1.1s-.5-.4-.5-.9c0-1.4-.6-3-1.8-4.1-1.6-1.5-4.6-2.6-8.8-2.6s-6.5.7-8.6,2.5c-3.4,2.9-4.2,7.1-4.2,11.4,0,10.4,8.1,15.4,14.2,15.4s6.3-.3,8.1-2.3c.8-.9,1.4-2.1,1.6-2.9.1-.7.2-.9.6-.9s.5.4.5.8c0,.5-.5,4.3-1,5.8-.2.8-.4,1-1.2,1.3-1.8.7-5.3,1-8.2,1-6.2,0-11.5-1.3-15.6-4.8Z"></path><path class="st14" d="M373.9,341c-.3,0-.3,0-.4.3l-2.4,5.9c-.5,1.1-.7,2.2-.7,2.7,0,.8.4,1.2,1.8,1.2h.7c.6,0,.7.2.7.5s-.2.5-.7.5c-1.5,0-3.6-.1-5.1-.1s-2.9.1-5.3.1-.8-.1-.8-.5.2-.5.5-.5.9,0,1.3,0c2.1-.3,2.9-1.7,3.8-3.9l11.9-27.7c.5-1.2.9-1.7,1.4-1.7s.9.4,1.3,1.4c1.1,2.4,8.7,20.4,11.6,27.1,1.8,4,3.1,4.5,3.9,4.7.7.1,1.2.1,1.7.1s.6.2.6.5-.3.5-2,.5-4.9,0-8.7-.1c-.8,0-1.3,0-1.3-.4s.1-.4.6-.5c.3,0,.6-.5.4-1l-3.5-8.8c-.1-.3-.3-.3-.5-.3h-10.7ZM383.6,338.6c.2,0,.3,0,.2-.2l-4.3-11.2c0-.2-.1-.4-.2-.4-.2,0-.2.3-.3.4l-4.4,11.1c-.1.2,0,.3.2.3h8.8Z"></path><path class="st14" d="M401.6,351.5c-.7-.3-.9-.5-.9-1.5,0-2.4.2-5.1.3-5.8,0-.7.2-1.1.6-1.1s.5.4.5.7c0,.6.2,1.5.4,2.3,1,3.3,4.4,4.3,7.2,4.3s6.3-2.5,6.3-5.6-.5-3.8-4.5-6.2l-2.6-1.5c-5.4-3.2-7.1-6.1-7.1-10s5.2-8.9,11.5-8.9,5.3.4,6.5.7c.4.1.6.3.6.6,0,.6-.2,1.8-.2,5.3s-.2,1.4-.6,1.4-.5-.3-.5-.8-.2-1.8-1.2-2.9c-.7-.8-2.1-2.1-5.1-2.1s-6.2,1.7-6.2,4.7.7,3.5,4.8,5.8l1.9,1c6,3.3,7.9,6.7,7.9,10.6s-1.2,5.9-4.6,8.2c-2.2,1.6-5.2,1.8-7.6,1.8s-5.4-.3-7.4-1.1Z"></path><path class="st14" d="M431,331.5c0-6.7,0-7.9,0-9.3,0-1.5-.6-2-1.5-2.3-.5-.2-1.1-.2-1.7-.2s-.7-.1-.7-.5.4-.4,1.1-.4c1.7,0,4.8.1,6.1.1s4.1-.1,5.8-.1.9.1.9.4c0,.4-.3.5-.7.5s-.8,0-1.3.1c-1.2.2-1.6.8-1.7,2.4-.1,1.4-.1,2.6-.1,9.3v7.8c0,4.2,0,7.8.2,9.6.2,1.2.5,1.9,1.8,2.1.6.1,1.6.1,2.3.1s.7.3.7.5c0,.3-.4.5-.9.5-3,0-6.1-.1-7.3-.1s-4.2.1-6,.1-.9-.1-.9-.5.2-.5.7-.5,1.2,0,1.6-.1c.9-.2,1.2-.8,1.3-2.1.2-1.8.2-5.3.2-9.6v-7.8Z"></path><path class="st14" d="M454.9,346.1c.1,3.4.7,4.5,1.5,4.8.8.3,1.7.3,2.4.3s.8.2.8.5-.4.5-1,.5c-2.9,0-5.1-.1-5.9-.1s-2.6.1-4.9.1-1,0-1-.5.3-.5.7-.5c.6,0,1.5,0,2.1-.2,1.2-.3,1.3-1.5,1.4-5.3l.4-26.1c0-.9.3-1.5.8-1.5s1.2.7,2,1.5c.6.6,7.4,7.6,14,14,3.1,3.1,9.2,9.3,9.8,9.9h.2l-.5-19.6c0-2.7-.5-3.5-1.6-3.9-.7-.3-1.8-.3-2.4-.3s-.7-.2-.7-.5.5-.4,1.1-.4c2.4,0,4.8.1,5.8.1s2.2-.1,4.4-.1,1,0,1,.4-.3.5-.8.5-.8,0-1.4.1c-1.2.4-1.6,1.1-1.6,3.6l-.5,27.7c0,1-.4,1.4-.7,1.4-.8,0-1.4-.5-1.9-.9-2.9-2.6-8.5-8.1-13.3-12.7-5-4.8-9.8-10.1-10.7-10.9h-.2l.5,17.9Z"></path><path class="st14" d="M490.1,335.4c0-7.5,5.3-17.2,19.1-17.2s18.6,6.4,18.6,16.5-7.3,18-19.1,18-18.6-9.4-18.6-17.2ZM521.1,336.2c0-9.7-5.8-15.7-13.2-15.7s-11,2.7-11,13.6,5.2,16.2,13.8,16.2,10.5-1.5,10.5-14Z"></path></g><path class="st14" d="M849.4,215c-3.4-8.8-9.5-20.5-18.7-35.7,2.2.8,4.8,1.2,8,1.2,13.7,0,14.1-10.1,14.1-11.3s-.1-2.2-.3-3.7l-5.9-29.8v-.2c-.6-2.5-1.7-6-4.6-8.2-2.6-2-5.9-2.2-8.4-2.2-4.1,0-6.6.3-8.6,1.2-1,.4-2.3,1.1-3.5,2.4-5-2.4-9.7-3.6-14.1-3.6-9.2,0-17.4,3.8-23.8,11.1-4,4.6-6.7,10.6-8.1,17.9v-40.2c0-3-.3-6.8-2.7-9.6-2.2-2.6-5.6-4-10.1-4h-33.8c-2.6,0-5.9.3-8.6,2.6-3.6,3.1-3.6,7.8-3.6,9.3v4.1c0,2.5.2,5.7,2.1,8.4.7,1,1.8,2.2,3.4,3-4.3-1.8-8.6-2.7-12.9-2.7-8.7,0-21.2,3.3-30.6,19.3-3.7,6.3-6.3,15.7-8,28.5v-14.4c0-9.1-2.6-17-7.7-23.2-3.8-4.7-11-10.2-23.4-10.2s-15.2,2.2-22,6.6c-.3-.5-.7-1.1-1.1-1.6-3-3.5-7.6-3.5-9-3.5h-34.6c-6.6,0-11.3,4.8-11.3,11.6v5.6c0,4.4,2.1,8.1,5.6,10.3v35c-1.7-17.9-6.4-32.3-14.3-42.8-10.5-14.1-23.9-21.2-39.9-21.2s-30.4,7.6-40.5,22.5c-6.7,9.9-11,22.6-12.9,38.4v-27c0-6.5-1.4-12.5-4.2-18-3.1-6.1-7.3-10.4-12.5-12.8-4.6-2.1-9.5-3.2-14.6-3.2-8.8,0-17.9,3.9-27,11.8-7.7-9.5-16.9-11.8-23.9-11.8s-14.5,2.3-21.5,7c-2-3.4-5.7-5.5-10.4-5.5h-33.3c-7.3,0-12.5,4.8-12.5,11.7v5.4c0,4.9,2.2,9,5.9,11.2v104.1c-.2.2-.4.5-.8.8-.4.4-.7.8-1.1,1.2-.6-.6-1.1-1.2-1.8-1.7,0,0,0,0,0,0v-93.4c0-8.2-2.6-15.8-7.6-22.6-4.9-6.7-11.6-11.6-19.8-14.4-7.4-2.5-15.8-3.8-25-3.8-14.3,0-26.3,3.4-35.5,10.2-9.9,7.2-15.1,17.2-15.1,28.9s6.6,21,17.9,22.5c-5.7,3.5-10,7.3-13,11.4-3,4-5.1,9.2-6.5,15.9v-75.5c0-5.3-2.8-9.3-7.2-11,5.8-4.9,7.2-10.4,7.2-14.6s-1.5-16.4-20.3-16.4-14.1,1.4-21.2,4.3c-12.6,5.1-14.4,13.7-14.4,18.4s.3,5.8,2.8,9.4c-3.2,2.1-5.1,5.5-5.1,9.8v5.2c-2.4-7.7-5.6-14.3-9.5-19.8-11.1-15.6-25.5-23.5-42.8-23.5h-50.8c-4.5,0-9.5.4-12.7,3.5-4.1,3.7-4.1,9.4-4.1,11.3,0,5.5.6,8.7,2.1,11.3,1.4,2.4,3.5,4.2,6.4,5.5v124.4c0,.6,0,1-1.6,1.8-2.5,1.4-6,3.6-7.2,7.9-.3,1.2-.6,2.9-.6,7.8s.3,7.2,2.7,10.2c1.5,1.9,4.5,4.2,9.7,4.2h56c18,0,32.6-8.3,43.4-24.8,10.2-15.5,15.1-37.8,15.1-68s-1.3-30.5-3.9-42.3c1,1.3,2.4,2.4,4,3.1v103c-2.9,1.8-6.1,5.5-6.1,13.5s.3,7,.9,8.8c1.3,3.6,4.5,6.1,8.6,6.7h42.2c7.2,0,9.9-3.7,11-6,.7-1.6,1.1-3.5,1.2-8.1.3.5.6,1.1,1,1.6,6.4,9.2,16,14.1,27.6,14.1s10.4-1.1,15.3-3.4c2.8-1.3,5.9-3.4,9.3-6.3,1.9,2.4,4.2,4.3,6.7,5.7,4.9,2.7,10.9,4,17.8,4s10-.6,13.9-1.9c3.1-1,5.5-2.2,7.3-3.7,2,2.5,5.1,4.1,8.9,4.1h39.9c4.8,0,8.7-2.3,10.7-6,.9,1.3,1.9,2.5,3.1,3.6l2.4,2.4h34.3c5.3,0,9.3-2.8,11-7.2,1.6,2.4,3.4,4.1,5,5.4l2.3,1.8h33.1c7,0,11.8-5,11.8-12.1v-5.1c0-4.1-1.6-7.9-4.7-11.4-.1-.1-.2-.2-.3-.3v-28.7c1,8.1,2.6,15.1,4.8,21.1,4.2,11.2,10.3,20.3,18.2,27.1,8.4,7.2,18.4,10.9,29.7,10.9,16.3,0,30-7.7,40.6-23,7.9-11.3,12.6-26.2,14.3-45.2v35c0,1.6,0,2.7-.1,3.3,0,0-.1.1-.2.2-2.1,1.4-5.6,4.7-5.6,11.3v3.9c0,3,.3,6.8,2.9,9.5,2.9,3.2,6.9,3.5,9.7,3.5h37.6c6.5,0,10.5-2.9,12.3-6.6,1.2,1.7,2.7,3.2,4.3,4.7l2.3,2h32.9c4.3,0,7.6-1.3,9.7-4,2.3-2.7,2.7-6.3,2.7-11.1s-1.7-11-5.1-13.8v-16.2c4.9,30.9,18.2,46.5,39.8,46.5s10.5-1.5,15.9-4.5c1.5,1.6,4,3.1,8,3.1h37c5.2,0,9.2-2.9,10.7-7.5.7,2.2,1.7,4,3.2,5.6,3.1,3.1,7.5,3.4,10.5,3.4,4.9,0,8.5-.5,11.2-3.1.3-.3.6-.6.8-.9,4.8,2.6,9.6,3.9,14.3,3.9s15.5-2.2,23.5-12.5c5.9-7.6,9-18.1,9-31s-1.8-21.9-5.3-31.1ZM84.2,137.3v108.3c0,3.6-.2,6.3-.4,8.3v-120.5c.3,1.1.4,2.4.4,3.8ZM250.2,232.6c0-1.1,0-2.2,0-3.3v5.9c0-.8,0-1.7,0-2.6ZM249.1,172.2c.5-1.6.9-3.4,1.1-5.4v4.9c-.4.2-.7.3-1.1.5ZM197.3,259v-.6c0,.2,0,.5.1.8,0,0,0,0-.1-.1ZM775.4,179.6c.9,5,2.3,10.1,4.2,15,3.4,8.7,8.7,19,16.2,31.7,2.1,3.4,3.9,6.6,5.5,9.4-.2-.1-.3-.2-.5-.3-2.4-1.6-5.5-2.4-9.8-2.4-14.3,0-15.4,8.6-15.4,11.3s0,1.6.5,4.1l2.4,13.4c-.9-.7-2-1.4-3.2-1.8v-80.4Z"></path><g><path class="st17" d="M35.4,256.3V128c-.2-1.4-1.5-2.5-3.8-3.2-1.8-.6-3.1-1.4-3.7-2.5-.6-1.1-1-3.4-1-7s.5-4.3,1.4-5.2c.9-.9,3.3-1.3,7.1-1.3h50.8c14.5,0,26.5,6.7,36,20,9.5,13.4,14.3,35.6,14.3,66.6s-4.6,49.4-13.8,63.5c-9.2,14-21.3,21-36.5,21H30.2c-1.6,0-2.6-.4-3.2-1.1-.6-.7-.9-2.4-.9-4.9s.1-4.9.3-5.7c.2-.8,1.2-1.7,3.1-2.6,4-2,5.9-5.1,5.9-9.1ZM74.8,121.4v146.8h5.6c4,0,6.9-1.6,8.7-4.9,1.8-3.3,2.8-9.1,2.8-17.6v-108.3c0-4.7-1.1-8.6-3.4-11.6-2.3-3-5.5-4.4-9.6-4.4h-4Z"></path><path class="st17" d="M146.7,145.5v-7c0-2.3,1.4-3.5,4.2-3.5h33.8c2.4,0,3.6,1.2,3.6,3.5v121.9c0,1.7.1,2.8.3,3.3.2.5.8,1,1.9,1.4,2.5,1,3.8,3.2,3.8,6.6s-.2,6.2-.5,7c-.4.8-1.5,1.2-3.4,1.2h-41c-1-.1-1.6-.6-1.9-1.3-.3-.7-.4-2.7-.4-5.9s.9-6,2.7-6.7c2.3-.8,3.4-2.2,3.4-4.2v-105.7c0-4.1-1.5-6.6-4.6-7.4-1.3-.4-1.9-1.4-1.9-3.1ZM176.4,104.9c8,0,12,2.7,12,8.1s-2.7,7.8-8,10.8c-5.3,2.9-11.4,4.4-18.2,4.4s-13.1-2.9-13.1-8.8,3.1-8.2,9.2-10.7c6.1-2.5,12.2-3.7,18.1-3.7Z"></path><path class="st17" d="M257.9,177.1v-20.4c0-5.7-2.3-8.5-6.9-8.5s-9.4,4.3-9.4,12.8-.5,8.2-1.6,10.3c-1.1,2.1-3.6,3.8-7.4,5.3-3.9,1.4-8,2.2-12.4,2.2-9,0-13.5-4.8-13.5-14.4s3.9-16.4,11.7-22.2c7.8-5.7,18-8.6,30.6-8.6s15.7,1.1,22.3,3.4c6.6,2.3,11.9,6.1,15.8,11.4,4,5.4,5.9,11.3,6,17.7v96.7c.1.5,1.2,1.5,3.2,3.2,1.4,1.1,2.1,2.6,2.1,4.7s-.4,4.8-1.2,6c-.8,1.2-2.7,2.2-5.7,3.2-3,1-6.8,1.5-11.3,1.5s-10.1-1-13.8-3c-3.7-2-6.5-6-8.6-11.8-6.2,6.4-11.1,10.4-15,12.2-3.8,1.8-7.7,2.7-11.8,2.7-9,0-15.9-3.5-20.8-10.5-4.9-7-7.4-18.5-7.4-34.5s2.3-27,6.9-33.2c4.6-6.2,13.6-11.9,26.9-17.1,8.5-3.2,15.5-6.2,21.1-8.9ZM257.9,190.9c-8,3.5-12.8,7.5-14.3,11.9-1.6,4.4-2.3,14.3-2.3,29.8s.6,18.5,1.9,21.5c1.3,3,3.5,4.5,6.6,4.5,5.4,0,8.2-4.5,8.2-13.5v-54.2Z"></path><path class="st17" d="M399.2,150.1c10.1-11,19.6-16.5,28.5-16.5s7.6.8,11.1,2.4c3.5,1.6,6.3,4.6,8.5,9,2.2,4.3,3.3,9.1,3.3,14.3v100.4c0,1.8.8,3.6,2.3,5.4,1.8,2,2.6,4,2.6,5.9v5.1c0,2.5-1.2,3.8-3.5,3.8h-30.2c-4.2-3.3-6.4-8.5-6.4-15.5v-99.9c0-4.9-2.4-7.3-7.1-7.3s-5.3.8-6.8,2.3c-1.6,1.5-2.4,3.4-2.4,5.7v95.7c0,2,1.1,3.8,3.2,5.5,1.3,1.1,1.9,2.2,1.9,3.3v6.4c0,2.5-1.2,3.8-3.6,3.8h-30.9c-3.9-3.8-5.8-9-5.8-15.5v-99.9c0-4.7-1.9-7-5.7-7s-4.2,1-8,3.1c-.4.2-.9.5-1.6.8v99.4c0,1.9,1.1,3.7,3.3,5.4,1.4,1.1,2.1,2.4,2.1,4v5.7c0,2.5-1.3,3.8-3.8,3.8h-39.9c-1.9,0-2.9-.8-2.9-2.5v-7c0-1.1,1-2.6,2.9-4.6,2-2,3.1-3.7,3.1-4.9v-107c0-2.8-1.2-4.8-3.7-5.8-1.5-.6-2.2-2-2.2-4.2v-5.4c0-2.3,1.4-3.4,4.1-3.4h33.3c2.5,0,3.7,1.1,3.7,3.4v10.7c9.3-10.4,18.7-15.6,28.2-15.6s17,5.5,22.4,16.5Z"></path><path class="st17" d="M512.4,133.6c13.3,0,24.4,6,33.3,17.9,8.9,11.9,13.4,29.6,13.4,53.1s-4.5,44.4-13.6,57.4c-9.1,13-20.3,19.5-33.8,19.5s-17.4-3-24.3-8.9c-6.9-5.9-12.1-13.9-15.8-23.8-3.7-9.9-5.6-23.4-5.6-40.6,0-24.5,4.3-43.1,12.8-55.7,8.5-12.6,19.7-18.9,33.7-18.9ZM520.1,160.2c0-8.8-2.5-13.1-7.6-13.1s-8.3,5.4-8.3,16.1v88.1c0,10.7,2.5,16,7.5,16s8.4-5.3,8.4-16v-91.1Z"></path><path class="st17" d="M610.2,149.5c8.4-10.6,18-15.9,28.9-15.9s13,2.4,16.9,7.2c3.9,4.8,5.9,10.8,5.9,18v101.6c0,2.3.9,4,2.6,5.2,1.6,1,2.4,3.5,2.4,7.6s-.3,5.2-.8,5.8c-.5.6-1.6,1-3.3,1h-29.8c-4.2-3.6-6.4-8.3-6.4-14.1v-100.8c0-5.5-2.3-8.3-6.8-8.3s-6.2,1.6-9.6,4.7v98.9c0,2.5,1.2,4.5,3.7,5.9,1.5.8,2.2,2.4,2.2,4.7v5.4c0,2.4-1.7,3.6-5.2,3.6h-37.6c-1.8,0-3-.3-3.5-.8-.5-.5-.8-1.9-.8-4v-3.9c0-2,.7-3.5,1.9-4.3,1.7-1.2,2.8-2.3,3.3-3.4.5-1.1.7-3.4.7-7v-103.7c0-2.5-1.2-4.3-3.6-5.4-1.3-.6-2-1.8-2-3.4v-5.6c0-2.2,1-3.3,3-3.3h34.6c1.5,0,2.4.2,2.8.6.4.4.5,1.3.5,2.7v11.1Z"></path><path class="st17" d="M731.4,144.7v-18.5c0-3.1-1.3-4.8-3.8-5-1.3,0-2.2-.4-2.6-1-.4-.6-.6-1.8-.6-3.6v-4.1c0-1.6.2-2.6.7-3,.5-.4,1.5-.6,3.2-.6h33.8c1.9,0,3.1.3,3.6.9.5.6.8,2.1.8,4.4v147.3c0,3.1,1.6,5.2,4.9,6.3,1.7.5,2.5,1.6,2.5,3.3v5.4c0,2.3-1,3.5-3.1,3.5h-37c-1.2,0-1.9-.2-2.2-.7-.2-.5-.4-2.3-.4-5.7s0-1.6,0-2.9c-7.7,7.1-14.9,10.7-21.5,10.7-22.4,0-33.6-22.9-33.6-68.6s3-53.8,9-64c6-10.1,13.8-15.2,23.4-15.2s14.9,3.7,22.8,11.1ZM731.4,156.7c-3.2-2-5.9-3-7.9-3s-4.2,1.1-5.7,3.3c-1.4,2.2-2.2,4.7-2.2,7.5v87.6c0,2.6.7,4.8,2,6.6,1.3,1.8,3,2.7,5.1,2.7s3.8-.8,5.8-2.5c2-1.7,2.9-3.2,2.9-4.7v-97.5Z"></path><path class="st17" d="M837.8,137.5l5.8,29.4c.1.9.2,1.7.2,2.4,0,2-1.9,3-5.7,3s-4.4-.3-5.6-1c-1.2-.6-2.5-2.3-4-5.1-1.7-3.3-4.3-7.1-7.7-11.6-3.5-4.5-6.6-6.7-9.4-6.7s-2,.5-2.8,1.5c-.8,1-1.2,2.1-1.2,3.5,0,3.6,5.2,13.8,15.5,30.6,8.9,14.6,15,26.1,18.1,34.4,3.2,8.3,4.8,17.7,4.8,28.2s-2.4,19.7-7.2,25.9c-4.8,6.2-10.5,9.3-17,9.3s-8.4-1.5-12.9-4.5c-2.5-1.6-4.1-2.4-5-2.4s-1.6.8-1.7,2.4c-.3,1.9-.7,3.1-1.3,3.7-.6.5-2.4.8-5.5.8s-4-.4-4.7-1.1c-.7-.7-1.2-1.9-1.5-3.7l-5.3-29.6c-.2-1.4-.3-2.3-.3-2.7,0-2,2.4-3,7.1-3s4.2.3,5.2.9c1,.6,2.2,2.5,3.6,5.5,5.5,11.5,10.7,17.3,15.7,17.3s4.8-1.9,4.8-5.7-1.2-7.6-3.6-12.6c-2.4-5-7-13.2-13.8-24.7-7.2-12.1-12.4-22.3-15.6-30.5-3.2-8.2-4.8-16.4-4.8-24.7s2.4-19.6,7.2-25.1c4.8-5.5,10.6-8.3,17.5-8.3s7.7,1.2,12.3,3.7c2.4,1.3,3.9,1.9,4.8,1.9s1.8-.7,2-2.2c.3-1.6.9-2.5,1.7-2.9.9-.4,2.7-.5,5.4-.5s2.9.2,3.4.6c.5.4,1,1.5,1.4,3.3Z"></path></g></svg>