<svg xmlns="http://www.w3.org/2000/svg" id="Capa_1" viewBox="0 0 1073 443.97"><defs><style>      .st0 {        fill: #fff;      }      .st1 {        fill: #f5333f;      }    </style></defs><path class="st1" d="M514.12,214.48h35.94l57.19,73.48v-73.48h38.13v139.01h-33.76l-59.37-76.26v76.26h-38.13v-139.01Z"></path><path class="st0" d="M664.57,214.48h59.58c35.15,0,57.79,18.07,57.79,48.86v.4c0,32.76-25.22,50.04-59.77,50.04h-19.06v39.72h-38.52v-139.01ZM721.37,283.59c13.7,0,22.04-7.14,22.04-18.07v-.4c0-11.92-8.34-18.27-22.24-18.27h-18.07v36.73h18.27Z"></path><path class="st0" d="M791.68,284.39v-.4c0-39.92,30.18-72.29,70.41-72.29s70.04,31.97,70.04,71.89v.4c0,39.91-30.18,72.28-70.41,72.28s-70.04-31.97-70.04-71.89ZM895.25,284.39v-.4c0-20.06-13.6-37.54-33.53-37.54s-32.97,17.08-32.97,37.13v.4c0,20.05,13.6,37.53,33.34,37.53s33.16-17.08,33.16-37.13Z"></path><polygon class="st0" points="931 214.48 931 248.25 970.96 248.25 970.96 353.49 1009.48 353.49 1009.48 248.25 1053.98 248.25 1053.98 214.48 931 214.48"></polygon><path class="st0" d="M661.8,411.33v-.14c0-13.61,10.17-24.88,24.33-24.88,8.73,0,13.95,3.09,18.77,7.63l-3.71,3.99c-4.06-3.85-8.59-6.6-15.12-6.6-10.65,0-18.63,8.66-18.63,19.73v.14c0,11.14,8.04,19.86,18.63,19.86,6.6,0,10.93-2.54,15.54-6.94l3.57,3.51c-5.02,5.09-10.52,8.45-19.25,8.45-13.89,0-24.13-10.93-24.13-24.75Z"></path><path class="st0" d="M748.96,386.79h5.09l21.93,48.46h-5.84l-5.64-12.72h-26.19l-5.71,12.72h-5.57l21.93-48.46ZM762.36,417.66l-10.93-24.54-11,24.54h21.93Z"></path><path class="st0" d="M797.83,428.24l3.37-3.99c5.02,4.54,9.83,6.8,16.5,6.8s10.72-3.44,10.72-8.18v-.14c0-4.47-2.41-7.01-12.51-9.14-11.07-2.41-16.15-5.98-16.15-13.89v-.14c0-7.56,6.67-13.13,15.81-13.13,7.01,0,12.03,1.99,16.91,5.91l-3.16,4.19c-4.47-3.64-8.94-5.22-13.89-5.22-6.26,0-10.24,3.44-10.24,7.77v.14c0,4.54,2.47,7.08,13.06,9.35,10.72,2.34,15.67,6.26,15.67,13.61v.14c0,8.25-6.87,13.61-16.43,13.61-7.63,0-13.89-2.54-19.66-7.7Z"></path><path class="st0" d="M861.97,387.14h5.43v48.12h-5.43v-48.12Z"></path><path class="st0" d="M897.99,387.14h5.09l30.31,38.56v-38.56h5.29v48.12h-4.33l-31.07-39.46v39.46h-5.29v-48.12Z"></path><path class="st0" d="M966.65,411.33v-.14c0-13.27,9.97-24.88,24.61-24.88s24.47,11.48,24.47,24.75q.07.07,0,.14c0,13.27-9.97,24.88-24.61,24.88s-24.47-11.48-24.47-24.75ZM1010.1,411.33v-.14c0-10.93-7.97-19.87-18.97-19.87s-18.83,8.8-18.83,19.73v.14c0,10.93,7.97,19.86,18.97,19.86s18.83-8.8,18.83-19.73Z"></path><path class="st1" d="M473.54,214.48c-5.85,11.1-11.62,22.23-17.33,33.41v105.6h38.73v-139.01h-21.39Z"></path><path class="st1" d="M605.22,6.66c-2.41-5.81-22.34,5.37-25.32,6.89-13.52,6.93-25.86,16.21-37.3,26.15-23.57,20.48-44.22,44.33-63.25,69.02-37.63,48.83-69.07,102-97.23,156.76-11.05,21.48-21.28,43.19-30.94,65.33-3.01,6.9-5.49,14.9-9.56,21.28-2.74,4.29-2.46-2.87-2.09-5.44,4.39-31.08,10.26-62.04,16.18-92.85,4.36-22.67,19.28-88.46,22.12-98.72,1.38-5.02,3.83-10.51,3.16-15.79-.83-6.53-5.83-12.21-11.89-14.52-14.4-5.49-24.11,8.51-32.3,17.96-10.37,11.98-20.01,24.56-29.2,37.46-18.59,26.1-35.7,53.28-51.62,81.08-6.6,11.53-12.48,23.44-18.88,35.05-2.78,5.04-3.57.96-2.48-2.7,1.9-6.4,3.42-12.91,5.16-19.35,8.5-31.54,18.34-62.71,26.76-94.28,6.98-26.14,14.35-53.45,15.75-80.61.55-10.66-.1-21.87-4.54-31.73-4.74-10.54-13.99-17.74-24.89-21.21-24.16-7.68-51.22,2.58-72.58,13.77-26.44,13.85-49.87,32.76-71.42,53.27-22.21,21.15-43.09,43.92-61.08,68.79-17.13,23.69-34.19,50.25-39.33,79.52-2.45,13.96-2.45,29.81,4.8,42.44,1.33,2.31,6.56,11.29,10.56,9.45,2.14-.99.95-3.97.18-5.51-1.63-3.25-3.33-5.67-4.12-9.34-3.17-14.7,2.52-30.14,9.11-43.09,6.61-12.97,15.37-24.74,24.91-35.7,20.02-22.99,42.88-43.66,66.38-63.02,22.99-18.94,47.03-36.05,73.67-49.49,6.91-3.48,14.38-7.76,22.25-8.33,12.9-.93,9.54,12.64,7.76,20.89-6.89,31.86-16.61,63.13-25.1,94.59s-17.07,63.62-21.3,96.13c-3.15,24.23-5.62,53.61,5.65,76.34,4.75,9.57,12.69,17.05,23.3,19.44,11.52,2.6,23.99-1.33,32.02-9.97,4.6-4.95,7.1-11.2,9.47-17.43,2.82-7.43,5.82-14.79,8.81-22.15,6.21-15.31,12.5-30.59,18.87-45.84,12.51-29.95,25.12-59.9,39.28-89.11,7.02-14.48,14.39-28.84,22.52-42.74,4.07-6.96,8.47-13.68,12.99-20.35,1.27-1.87,8.18-14.34,10.86-13.32,2.54.96-2.93,16.61-3.48,18.73-2,7.81-4.01,15.63-6.01,23.44-4.11,16.02-8.18,32.04-12.34,48.04-8.28,31.85-16.86,63.65-23.65,95.86-3.33,15.79-6.49,31.72-8.33,47.76-.91,7.95-1.44,15.95-1.27,23.95.14,6.5.61,12.71,4.07,18.38,6.07,9.95,18.2,15.17,29.6,12.82,14.16-2.92,19.32-14.57,24.63-26.54,26.77-60.43,56.4-119.55,86.64-178.3,28.78-55.9,58.82-111.56,95.86-162.52,8.71-11.98,17.98-23.59,28.22-34.31,5.17-5.42,10.65-10.55,16.63-15.07,3.17-2.39,6.47-4.56,9.85-6.64,1.62-.99,4.45-2.25,3.45-4.66Z"></path><path class="st0" d="M1037.6,346.49v-.08c0-7.69,6.25-14.21,14.17-14.21s14.1,6.44,14.1,14.13v.08c0,7.69-6.25,14.21-14.17,14.21s-14.1-6.44-14.1-14.13ZM1064.23,346.41v-.08c0-6.91-5.35-12.57-12.46-12.57s-12.53,5.74-12.53,12.65v.08c0,6.91,5.35,12.57,12.46,12.57s12.53-5.74,12.53-12.65ZM1045.53,338.49h6.99c2.38,0,4.02.62,5.07,1.68.86.85,1.29,1.99,1.29,3.43v.08c0,2.31-1.21,3.83-3.08,4.61l3.59,5.23h-4.8l-3.04-4.57h-1.83v4.57h-4.18v-15.03ZM1052.44,345.71c1.44,0,2.27-.66,2.27-1.76v-.08c0-1.21-.9-1.8-2.31-1.8h-2.69v3.63h2.73Z"></path></svg>